<svg width="1080" height="1080" viewBox="0 0 60 60" fill="none" xmlns="http://www.w3.org/2000/svg">
<rect width="60" height="60" rx="6" fill="#8B5CF6"/>
<path d="M24.3233 47.4481C23.9098 54.2946 26.0462 54.9792 30.0091 54.9792C35.0057 55.3215 35.5226 51.3848 35.178 47.4481C36.5564 46.25 39.6577 43.5114 39.83 40.0881C40.0023 36.6649 40.1746 27.7645 40.1746 27.7645C40.1746 25.7106 45.0273 23.9637 46.9161 20.5757C49.8986 15.2259 52.58 8.5944 51.8908 5.00001C42.5867 5.68466 35.4651 18.9211 33.9719 24.8548C33.857 25.4253 32.9037 26.5664 30.0091 26.5664C27.1145 26.5664 26.5057 25.4253 26.5631 24.8548C24.3233 17.4948 15.8807 4.99998 9.33344 5C7.95507 6.88277 11.0564 19.3776 14.8469 21.6027C16.5699 22.4585 20.7289 26.3952 20.705 27.7645C20.6476 30.6172 20.5672 37.0757 20.705 40.0881C20.8429 43.1006 23.1746 46.25 24.3233 47.4481Z" fill="white"/>
</svg>
